<svg id="Flat" height="512" viewBox="0 0 512 512" width="512" xmlns="http://www.w3.org/2000/svg"><path d="m464 200a24 24 0 0 0 -24 24v96a24 24 0 0 0 24 24 24 24 0 0 0 24-24v-96a24 24 0 0 0 -24-24z" fill="#e9eef2"/><path d="m440 264v20l48-36v-16-4z" fill="#eb423f"/><path d="m488 280v-20l-48 36v16 4z" fill="#eb423f"/><path d="m464 200a24 24 0 0 1 24 24v8a0 0 0 0 1 0 0h-48a0 0 0 0 1 0 0v-8a24 24 0 0 1 24-24z" fill="#6a7073"/><path d="m440 312h48a0 0 0 0 1 0 0v8a24 24 0 0 1 -24 24 24 24 0 0 1 -24-24v-8a0 0 0 0 1 0 0z" fill="#6a7073"/><path d="m24 24h416v464h-416z" fill="#c45941"/><path d="m184 280h96v208h-96z" fill="#e9eef2"/><path d="m184 376h96v16h-96z" fill="#c3c6c7"/><path d="m24 56h416v144h-416z" fill="#596063"/><path d="m56 264h96v160h-96z" fill="#f7cca9"/><path d="m224 280h16v208h-16z" fill="#c3c6c7"/><path d="m232 232a48 48 0 0 1 48 48 0 0 0 0 1 0 0h-96a0 0 0 0 1 0 0 48 48 0 0 1 48-48z" fill="#e9eef2"/><path d="m337.676 152.178-110.508-23.678-.746-.5.746-.5 110.508-23.681a8 8 0 0 0 -3.352-15.644l-112 24a7.983 7.983 0 0 0 -2.762 1.166l-7.562 5.044-28.329-18.885a19.037 19.037 0 0 0 .329-3.5c0-13.458-14.056-24-32-24s-32 10.542-32 24 14.056 24 32 24c9.075 0 17.151-2.7 22.921-7.1l22.657 15.1-22.657 15.1c-5.77-4.4-13.846-7.1-22.921-7.1-17.944 0-32 10.542-32 24s14.056 24 32 24 32-10.542 32-24a19.037 19.037 0 0 0 -.329-3.5l28.329-18.885 7.562 5.041a7.983 7.983 0 0 0 2.762 1.166l112 24a8 8 0 1 0 3.352-15.644zm-185.676-48.178c-9.767 0-16-4.738-16-8s6.233-8 16-8 16 4.738 16 8-6.233 8-16 8zm0 64c-9.767 0-16-4.738-16-8s6.233-8 16-8 16 4.738 16 8-6.233 8-16 8z" fill="#e9eef2"/><path d="m56 336h96v16h-96z" fill="#dbb697"/><path d="m96 264h16v160h-16z" fill="#dbb697"/><path d="m312 264h96v160h-96z" fill="#f7cca9"/><path d="m312 336h96v16h-96z" fill="#dbb697"/><path d="m352 264h16v160h-16z" fill="#dbb697"/><path d="m184 280h96v16h-96z" fill="#c3c6c7"/><g fill="#596063"><path d="m216 400a8 8 0 0 1 -8-8v-16a8 8 0 0 1 16 0v16a8 8 0 0 1 -8 8z"/><path d="m248 400a8 8 0 0 1 -8-8v-16a8 8 0 0 1 16 0v16a8 8 0 0 1 -8 8z"/></g></svg>