<?xml version="1.0" encoding="UTF-8"?><svg xmlns="http://www.w3.org/2000/svg" viewBox="0 0 64 64"><defs><style>.cls-1{fill:none;stroke:#000;stroke-linecap:round;stroke-linejoin:round;stroke-width:2px;}</style></defs><title>50-web essential</title><g id="Layer_50" data-name="Layer 50"><path class="cls-1" d="M15.73 11.53h32.41a4.18 4.18 0 0 1 4.18 4.18v36a11 11 0 0 1-11 11H22.58a11 11 0 0 1-11-11v-36a4.18 4.18 0 0 1 4.15-4.18z" fill="none" stroke="#000" stroke-linecap="round" stroke-linejoin="round" stroke-width="2px"/><rect class="cls-1" x="7.52" y="6.52" width="48.84" height="5.01" rx="2.43" ry="2.43" fill="none" stroke="#000" stroke-linecap="round" stroke-linejoin="round" stroke-width="2px"/><path class="cls-1" d="M21.79 6.52a5.32 5.32 0 0 1 5.32-5.33h9.81a5.33 5.33 0 0 1 5.33 5.33" fill="none" stroke="#000" stroke-linecap="round" stroke-linejoin="round" stroke-width="2px"/><path class="cls-1" fill="none" stroke="#000" stroke-linecap="round" stroke-linejoin="round" stroke-width="2px" d="M30.5 16.75h2.88v38.88H30.5z"/><path class="cls-1" fill="none" stroke="#000" stroke-linecap="round" stroke-linejoin="round" stroke-width="2px" d="M16.13 16.75h2.88v38.88h-2.88z"/><path class="cls-1" fill="none" stroke="#000" stroke-linecap="round" stroke-linejoin="round" stroke-width="2px" d="M44.63 16.75h2.88v38.88h-2.88z"/></g><metadata><rdf:RDF xmlns:rdf="http://www.w3.org/1999/02/22-rdf-syntax-ns#" xmlns:rdfs="http://www.w3.org/2000/01/rdf-schema#" xmlns:dc="http://purl.org/dc/elements/1.1/"><rdf:Description about="https://iconscout.com/legal#licenses" dc:title="-web,essential" dc:description="-web,essential" dc:publisher="Iconscout" dc:date="2018-07-06" dc:format="image/svg+xml" dc:language="en"><dc:creator><rdf:Bag><rdf:li>VINZENCE STUDIO</rdf:li></rdf:Bag></dc:creator></rdf:Description></rdf:RDF></metadata></svg>