<svg xmlns="http://www.w3.org/2000/svg" enable-background="new 0 0 68 68" viewBox="0 0 68 68"><path fill="#010101" d="M60.42676,4.38915h-8.14941V1.96532c0-0.55225-0.44727-1-1-1s-1,0.44775-1,1v2.42383H17.72266V1.96532
		c0-0.55225-0.44727-1-1-1s-1,0.44775-1,1v2.42383H7.57324C3.94922,4.38915,1,7.33788,1,10.96288c0,16.43136,0,34.53547,0,49.49805
		c0,3.625,2.94922,6.57373,6.57324,6.57373h52.85352c3.62402,0,6.57324-2.94873,6.57324-6.57373c0-14.96296,0-33.06718,0-49.49805
		C67,7.33788,64.05078,4.38915,60.42676,4.38915z M7.57324,6.38915h8.14941v2.0058c-2.22418,0.4632-3.90137,2.43762-3.90137,4.79742
		c0,2.70264,2.19922,4.90137,4.90137,4.90137s4.90137-2.19873,4.90137-4.90137c0-2.3598-1.67719-4.33423-3.90137-4.79742v-2.0058
		h32.55469v2.0058c-2.22418,0.4632-3.90137,2.43762-3.90137,4.79742c0,2.70264,2.19922,4.90137,4.90137,4.90137
		s4.90137-2.19873,4.90137-4.90137c0-2.3598-1.67719-4.33423-3.90137-4.79742v-2.0058h8.14941
		C62.94824,6.38915,65,8.44091,65,10.96288v8.93506H3v-8.93506C3,8.44091,5.05176,6.38915,7.57324,6.38915z M16.72266,14.19237
		c0.55273,0,1-0.44775,1-1v-2.71283c1.10638,0.40948,1.90137,1.466,1.90137,2.71283c0,1.59961-1.30176,2.90137-2.90137,2.90137
		s-2.90137-1.30176-2.90137-2.90137c0-1.24683,0.79498-2.30334,1.90137-2.71283v2.71283
		C15.72266,13.74462,16.16992,14.19237,16.72266,14.19237z M51.27734,14.19237c0.55273,0,1-0.44775,1-1v-2.71283
		c1.10638,0.40948,1.90137,1.466,1.90137,2.71283c0,1.59961-1.30176,2.90137-2.90137,2.90137s-2.90137-1.30176-2.90137-2.90137
		c0-1.24683,0.79498-2.30334,1.90137-2.71283v2.71283C50.27734,13.74462,50.72461,14.19237,51.27734,14.19237z M60.42676,65.03466
		H7.57324C5.05176,65.03466,3,62.9829,3,60.46093V21.99511h62v38.46582C65,62.9829,62.94824,65.03466,60.42676,65.03466z"/><path fill="#010101" d="M43.88086 25.48729h-5.64258c-1.10254 0-2 .89697-2 2v5.64209c0 1.10303.89746 2 2 2h5.64258c1.10254 0 2-.89697 2-2v-5.64209C45.88086 26.38427 44.9834 25.48729 43.88086 25.48729zM38.23828 33.12938v-5.64209h5.64258l.00098 5.64209H38.23828zM58 25.48729h-5.64258c-1.10254 0-2 .89697-2 2v5.64209c0 1.10303.89746 2 2 2H58c1.10254 0 2-.89697 2-2v-5.64209C60 26.38427 59.10254 25.48729 58 25.48729zM52.35742 33.12938v-5.64209H58l.00098 5.64209H52.35742zM15.64258 38.64501H10c-1.10254 0-2 .89697-2 2v5.64258c0 1.10303.89746 2 2 2h5.64258c1.10254 0 2-.89697 2-2v-5.64258C17.64258 39.54198 16.74512 38.64501 15.64258 38.64501zM10 46.28759v-5.64258h5.64258l.00098 5.64258H10zM29.76172 38.64501h-5.64258c-1.10254 0-2 .89697-2 2v5.64258c0 1.10303.89746 2 2 2h5.64258c1.10254 0 2-.89697 2-2v-5.64258C31.76172 39.54198 30.86426 38.64501 29.76172 38.64501zM24.11914 46.28759v-5.64258h5.64258l.00098 5.64258H24.11914zM43.88086 38.64501h-5.64258c-1.10254 0-2 .89697-2 2v5.64258c0 1.10303.89746 2 2 2h5.64258c1.10254 0 2-.89697 2-2v-5.64258C45.88086 39.54198 44.9834 38.64501 43.88086 38.64501zM38.23828 46.28759v-5.64258h5.64258l.00098 5.64258H38.23828zM58 38.64501h-5.64258c-1.10254 0-2 .89697-2 2v5.64258c0 1.10303.89746 2 2 2H58c1.10254 0 2-.89697 2-2v-5.64258C60 39.54198 59.10254 38.64501 58 38.64501zM52.35742 46.28759v-5.64258H58l.00098 5.64258H52.35742zM15.64258 51.80321H10c-1.10254 0-2 .89697-2 2v5.64209c0 1.10303.89746 2 2 2h5.64258c1.10254 0 2-.89697 2-2v-5.64209C17.64258 52.70018 16.74512 51.80321 15.64258 51.80321zM10 59.4453v-5.64209h5.64258l.00098 5.64209H10zM29.76172 51.80321h-5.64258c-1.10254 0-2 .89697-2 2v5.64209c0 1.10303.89746 2 2 2h5.64258c1.10254 0 2-.89697 2-2v-5.64209C31.76172 52.70018 30.86426 51.80321 29.76172 51.80321zM24.11914 59.4453v-5.64209h5.64258l.00098 5.64209H24.11914zM43.88086 51.80321h-5.64258c-1.10254 0-2 .89697-2 2v5.64209c0 1.10303.89746 2 2 2h5.64258c1.10254 0 2-.89697 2-2v-5.64209C45.88086 52.70018 44.9834 51.80321 43.88086 51.80321zM38.23828 59.4453v-5.64209h5.64258l.00098 5.64209H38.23828zM58 51.80321h-5.64258c-1.10254 0-2 .89697-2 2v5.64209c0 1.10303.89746 2 2 2H58c1.10254 0 2-.89697 2-2v-5.64209C60 52.70018 59.10254 51.80321 58 51.80321zM52.35742 59.4453v-5.64209H58l.00098 5.64209H52.35742zM35.91504 14.19237H41.5c.55273 0 1-.44775 1-1s-.44727-1-1-1h-5.58496c-.55273 0-1 .44775-1 1S35.3623 14.19237 35.91504 14.19237zM26.5 14.19237h4.62988c.55273 0 1-.44775 1-1s-.44727-1-1-1H26.5c-.55273 0-1 .44775-1 1S25.94727 14.19237 26.5 14.19237z"/></svg>