<?xml version="1.0" encoding="UTF-8"?><svg xmlns="http://www.w3.org/2000/svg" xmlns:xlink="http://www.w3.org/1999/xlink"
  version="1.1" id="Layer_1" width="300" x="0px" y="0px" viewBox="0 0 52 52" xml:space="preserve">
  <g fill="none" stroke="#fff" stroke-width="2" stroke-linecap="round" stroke-linejoin="round" stroke-miterlimit="10">
    <path
      d="M39.941 42.473a3.52 3.52 0 0 1-4.5-2.146 3.509 3.509 0 0 1 2.146-4.49 3.509 3.509 0 0 1 4.49 2.146 3.511 3.511 0 0 1-2.136 4.49z" />
    <path
      d="M23.443 18.003c0 2.79-2.265 5.064-5.064 5.064s-5.064-2.274-5.064-5.064c0-2.799 2.265-5.064 5.064-5.064s5.064 2.265 5.064 5.064z" />
    <path
      d="M30.792 28.2l-1.701-4.173c.485-.84.86-1.76 1.127-2.73l4.145-1.74V16.43l-4.145-1.741a12.03 12.03 0 0 0-1.127-2.73l1.701-4.154-2.215-2.216-4.174 1.702c-.841-.485-1.751-.86-2.71-1.128L19.942 2.02 16.826 2l-1.76 4.164c-.95.267-1.87.653-2.71 1.128L8.182 5.59 5.966 7.806l1.701 4.154c-.484.86-.86 1.76-1.127 2.73l-4.144 1.74v3.126l4.144 1.741c.267.97.643 1.89 1.127 2.73l-1.7 4.174 2.215 2.195 4.154-1.7c.84.484 1.76.88 2.73 1.137l1.75 4.154h3.116l1.74-4.154c.97-.257 1.9-.653 2.74-1.138l4.165 1.701 2.215-2.195zM18.38 23.068a5.067 5.067 0 0 1-5.064-5.064c0-2.799 2.265-5.064 5.064-5.064s5.064 2.265 5.064 5.064a5.067 5.067 0 0 1-5.064 5.064z" />
    <path
      d="M47.29 38.576l2.314-2.107-.722-2.037-3.125-.188a8.518 8.518 0 0 0-1.385-1.533l.148-3.116-1.948-.95-2.344 2.088a7.847 7.847 0 0 0-2.047-.1l-2.107-2.314-2.048.722-.178 3.126a8.411 8.411 0 0 0-1.533 1.365l-3.125-.149-.93 1.969 2.077 2.344a7.75 7.75 0 0 0-.099 2.037l-2.314 2.107.712 2.047 3.135.188c.396.554.86 1.069 1.365 1.514l-.148 3.135 1.968.94 2.334-2.087a8.326 8.326 0 0 0 2.048.109L41.444 50l2.048-.722.178-3.125a7.791 7.791 0 0 0 1.523-1.375l3.135.148.93-1.958-2.077-2.335a8.351 8.351 0 0 0 .109-2.057zm-7.349 3.897a3.52 3.52 0 0 1-4.5-2.146 3.509 3.509 0 0 1 2.146-4.49 3.509 3.509 0 0 1 4.49 2.146 3.511 3.511 0 0 1-2.136 4.49z" />
    <path
      d="M39.941 42.473a3.52 3.52 0 0 1-4.5-2.146 3.509 3.509 0 0 1 2.146-4.49 3.509 3.509 0 0 1 4.49 2.146 3.511 3.511 0 0 1-2.136 4.49z" />
  </g>
  <g fill="none" stroke="#fff" stroke-width="2" stroke-linecap="round" stroke-linejoin="round" stroke-miterlimit="10">
    <path
      d="M39.941 42.473a3.52 3.52 0 0 1-4.5-2.146 3.509 3.509 0 0 1 2.146-4.49 3.509 3.509 0 0 1 4.49 2.146 3.511 3.511 0 0 1-2.136 4.49z" />
    <path
      d="M23.443 18.003c0 2.79-2.265 5.064-5.064 5.064s-5.064-2.274-5.064-5.064c0-2.799 2.265-5.064 5.064-5.064s5.064 2.265 5.064 5.064z" />
    <path
      d="M30.792 28.2l-1.701-4.173c.485-.84.86-1.76 1.127-2.73l4.145-1.74V16.43l-4.145-1.741a12.03 12.03 0 0 0-1.127-2.73l1.701-4.154-2.215-2.216-4.174 1.702c-.841-.485-1.751-.86-2.71-1.128L19.942 2.02 16.826 2l-1.76 4.164c-.95.267-1.87.653-2.71 1.128L8.182 5.59 5.966 7.806l1.701 4.154c-.484.86-.86 1.76-1.127 2.73l-4.144 1.74v3.126l4.144 1.741c.267.97.643 1.89 1.127 2.73l-1.7 4.174 2.215 2.195 4.154-1.7c.84.484 1.76.88 2.73 1.137l1.75 4.154h3.116l1.74-4.154c.97-.257 1.9-.653 2.74-1.138l4.165 1.701 2.215-2.195zM18.38 23.068a5.067 5.067 0 0 1-5.064-5.064c0-2.799 2.265-5.064 5.064-5.064s5.064 2.265 5.064 5.064a5.067 5.067 0 0 1-5.064 5.064z" />
    <path
      d="M47.29 38.576l2.314-2.107-.722-2.037-3.125-.188a8.518 8.518 0 0 0-1.385-1.533l.148-3.116-1.948-.95-2.344 2.088a7.847 7.847 0 0 0-2.047-.1l-2.107-2.314-2.048.722-.178 3.126a8.411 8.411 0 0 0-1.533 1.365l-3.125-.149-.93 1.969 2.077 2.344a7.75 7.75 0 0 0-.099 2.037l-2.314 2.107.712 2.047 3.135.188c.396.554.86 1.069 1.365 1.514l-.148 3.135 1.968.94 2.334-2.087a8.326 8.326 0 0 0 2.048.109L41.444 50l2.048-.722.178-3.125a7.791 7.791 0 0 0 1.523-1.375l3.135.148.93-1.958-2.077-2.335a8.351 8.351 0 0 0 .109-2.057zm-7.349 3.897a3.52 3.52 0 0 1-4.5-2.146 3.509 3.509 0 0 1 2.146-4.49 3.509 3.509 0 0 1 4.49 2.146 3.511 3.511 0 0 1-2.136 4.49z" />
    <path
      d="M39.941 42.473a3.52 3.52 0 0 1-4.5-2.146 3.509 3.509 0 0 1 2.146-4.49 3.509 3.509 0 0 1 4.49 2.146 3.511 3.511 0 0 1-2.136 4.49z" />
  </g>
  <metadata>
    <rdf:RDF xmlns:rdf="http://www.w3.org/1999/02/22-rdf-syntax-ns#" xmlns:rdfs="http://www.w3.org/2000/01/rdf-schema#"
      xmlns:dc="http://purl.org/dc/elements/1.1/">
      <rdf:Description about="https://iconscout.com/legal#licenses" dc:title="configuration,settings,options,config"
        dc:description="configuration,settings,options,config" dc:publisher="Iconscout" dc:date="2017-11-11"
        dc:format="image/svg+xml" dc:language="en">
        <dc:creator>
          <rdf:Bag>
            <rdf:li>Dinosoft Labs</rdf:li>
          </rdf:Bag>
        </dc:creator>
      </rdf:Description>
    </rdf:RDF>
  </metadata>
</svg>