<svg xmlns="http://www.w3.org/2000/svg" width="2000" height="2000" enable-background="new 0 0 2000 2000" viewBox="0 0 2000 2000"><path d="M1240.6855,300.4634h-173.1758v-88.7817c0-24.5967-18.5781-43.8643-42.2969-43.8643c-3.2324,0-6.4961,0.3687-9.6973,1.0942
		L236.1621,345.436c-22.0869,5.0024-38.7441,26.3833-38.7441,49.7339v1209.6597c0,23.3486,16.6563,44.7295,38.7441,49.7339
		l779.3535,176.5259c3.2031,0.7256,6.4658,1.0933,9.6963,1.0933c23.7178,0,42.2979-19.2676,42.2979-43.8647v-88.7827h173.1758
		c25.2012,0,45.7031-21.9082,45.7031-48.8374V349.3027C1286.3887,322.3726,1265.8867,300.4634,1240.6855,300.4634z
		 M1007.5098,1767.7563L257.418,1597.8584V402.1411l750.0918-169.897v117.0586v1301.395V1767.7563z M1226.3887,1639.5352h-158.8789
		V360.4634h158.8789V1639.5352z"/><path d="M798.1895 898.873c-52.7832 0-95.7256 45.3652-95.7256 101.127s42.9424 101.127 95.7256 101.127S893.916 1055.7617 893.916 1000 850.9727 898.873 798.1895 898.873zM798.1895 1041.127c-19.6992 0-35.7256-18.4497-35.7256-41.127s16.0264-41.127 35.7256-41.127S833.916 977.3228 833.916 1000 817.8887 1041.127 798.1895 1041.127zM1794.1094 1020.8823c.1582-.1631.3164-.3267.4697-.4927.1885-.2021.3721-.4092.5537-.6172.1406-.1602.2813-.3198.418-.4824.1934-.2314.3828-.4673.5703-.7041.1133-.1445.2285-.2871.3398-.4336.2109-.2769.416-.5596.6152-.8442.0781-.1108.1602-.2192.2363-.3311.2402-.3491.4707-.7046.6963-1.064.0313-.0498.0645-.0981.0947-.1479 2.8359-4.5815 4.4766-9.981 4.4766-15.7651s-1.6406-11.1836-4.4766-15.7651c-.0303-.0498-.0635-.0981-.0947-.1479-.2256-.3594-.4561-.7148-.6963-1.064-.0762-.1118-.1582-.2202-.2363-.3311-.1992-.2847-.4043-.5674-.6152-.8442-.1113-.1465-.2266-.2891-.3398-.4336-.1875-.2368-.377-.4727-.5703-.7041-.1367-.1626-.2773-.3223-.418-.4824-.1816-.208-.3652-.4141-.5537-.6172-.1533-.166-.3115-.3296-.4697-.4927-.1865-.1924-.375-.3833-.5664-.5708-.0781-.0747-.1484-.1533-.2266-.2275L1620.082 812.6411c-11.9746-11.4517-30.9648-11.0298-42.416.9458-11.4531 11.9736-11.0293 30.9639.9453 42.4155L1697.8086 970h-300.4648c-16.5684 0-30 13.4316-30 30s13.4316 30 30 30h300.4648l-119.1973 113.9976c-11.9746 11.4517-12.3984 30.4419-.9453 42.4155 5.8936 6.1626 13.7813 9.2656 21.6836 9.2651 7.4541-.0005 14.9199-2.7612 20.7324-8.3193l173.2344-165.6782c.0781-.0742.1484-.1528.2266-.2275C1793.7344 1021.2656 1793.9229 1021.0747 1794.1094 1020.8823z"/></svg>