<?xml version="1.0" encoding="UTF-8"?><svg xmlns="http://www.w3.org/2000/svg" xmlns:xlink="http://www.w3.org/1999/xlink"
  width="5px" height="5px" viewBox="0 0 14 16" version="1.1">
  <title>key</title>
  <g id="Octicons" stroke="none" stroke-width="1" fill="none" fill-rule="evenodd">
    <g id="key" fill="#000">
      <path
        d="M12.83 2.17C12.08 1.42 11.14 1.03 10 1c-1.13.03-2.08.42-2.83 1.17S6.04 3.86 6.01 5c0 .3.03.59.09.89L0 12v1l1 1h2l1-1v-1h1v-1h1v-1h2l1.09-1.11c.3.08.59.11.91.11 1.14-.03 2.08-.42 2.83-1.17S13.97 6.14 14 5c-.03-1.14-.42-2.08-1.17-2.83zM11 5.38c-.77 0-1.38-.61-1.38-1.38 0-.77.61-1.38 1.38-1.38.77 0 1.38.61 1.38 1.38 0 .77-.61 1.38-1.38 1.38z"
        id="Shape" />
    </g>
  </g>
  <metadata>
    <rdf:RDF xmlns:rdf="http://www.w3.org/1999/02/22-rdf-syntax-ns#" xmlns:rdfs="http://www.w3.org/2000/01/rdf-schema#"
      xmlns:dc="http://purl.org/dc/elements/1.1/">
      <rdf:Description about="https://iconscout.com/legal#licenses" dc:title="key" dc:description="key"
        dc:publisher="Iconscout" dc:date="2017-09-14" dc:format="image/svg+xml" dc:language="en">
        <dc:creator>
          <rdf:Bag>
            <rdf:li>Github</rdf:li>
          </rdf:Bag>
        </dc:creator>
      </rdf:Description>
    </rdf:RDF>
  </metadata>
</svg>