<svg id="Layer_1" enable-background="new 0 0 512.662 512.662" height="512" viewBox="0 0 512.662 512.662" width="512" xmlns="http://www.w3.org/2000/svg"><g><path d="m168.894 122.15v-30h-67.438v-91.816h-30v512h30v-91.821h67.438v-30h-67.438v-268.363z" fill="#2a3860"/><path d="m332.985 0h-70.87c-42.539 0-77.147 34.608-77.147 77.148v15h225.165v-15c0-42.54-34.609-77.148-77.148-77.148z" fill="#2a3860"/><path d="m410.133 77.148c0-42.54-34.609-77.148-77.148-77.148h-35.435v92.148h112.583z" fill="#232e41"/><path d="m184.968 420.515v15c0 42.539 34.608 77.147 77.147 77.147h70.87c42.539 0 77.147-34.608 77.147-77.148v-15z" fill="#2a3860"/><path d="m332.985 512.662c42.539 0 77.147-34.608 77.147-77.148v-15h-112.583v92.148z" fill="#232e41"/><path d="m184.968 122.152h225.165v268.359h-225.165z" fill="#edf5ff"/><path d="m297.55 122.152h112.583v268.359h-112.583z" fill="#d6e8fd"/><path d="m361.559 122.152-176.591 176.591v42.425l219.016-219.016z" fill="#7c84e8"/><path d="m361.559 122.152-64.009 64.008v42.426l106.434-106.434z" fill="#424ede"/><path d="m272.321 122.152-87.353 87.353v42.426l129.779-129.779z" fill="#f75f79"/><path d="m410.133 162.814-225.165 225.165v2.532h39.894l185.271-185.271z" fill="#f75f79"/><path d="m410.133 162.814-112.583 112.583v42.426l112.583-112.583z" fill="#cf3086"/><path d="m410.133 252.051-138.46 138.46h42.426l96.034-96.034z" fill="#7c84e8"/><path d="m314.099 390.511 96.034-96.034v-42.426l-112.583 112.583v25.877z" fill="#424ede"/><path d="m153.894 62.148h287.313v90.004h-287.313z" fill="#384e75"/><path d="m297.55 62.148h143.656v90.004h-143.656z" fill="#2a3860"/><path d="m153.894 360.511h287.313v90.003h-287.313z" fill="#384e75"/><path d="m297.55 360.511h143.656v90.003h-143.656z" fill="#2a3860"/></g></svg>