<svg id="_x33_0" enable-background="new 0 0 64 64" height="512" viewBox="0 0 64 64" width="512" xmlns="http://www.w3.org/2000/svg"><g><g><g><path d="m51 12v50h-2l-4-4v-12-4-12-4-10l4-4z" fill="#cf9e76"/></g><g><path d="m37 42h8v4h-8z" fill="#aab2bd"/></g><g><path d="m37 26h8v4h-8z" fill="#aab2bd"/></g><g><path d="m26 2c3.87 0 7 3.13 7 7 0 1.96-.8 3.73-2.1 5h-9.9v-.1c-1.24-1.26-2-2.99-2-4.9 0-3.87 3.13-7 7-7z" fill="#fcd770"/></g><g><path d="m35 15v3h-18v-3c0-.55.45-1 1-1h3 9.9 3.1c.55 0 1 .45 1 1z" fill="#aab2bd"/></g><g><path d="m15 54h22c0 4.42-3.58 8-8 8h-6c-4.42 0-8-3.58-8-8z" fill="#aab2bd"/></g><g><path d="m39 50v4h-2-22-2v-4h2 4 14 4z" fill="#ccd1d9"/></g><g><path d="m39 18v4h-2-4-14-4-2v-4h4 18z" fill="#ccd1d9"/></g><g><path d="m19 42v8h-4v-28h4v5 5 5z" fill="#ccd1d9"/></g><g><path d="m37 46v4h-4v-5-5-5-5-8h4v4 4 12z" fill="#ccd1d9"/></g><g><path d="m33 50h-14v-8z" fill="#e6e9ed"/></g><g><path d="m33 40v5l-14-8v-5z" fill="#e6e9ed"/></g><g><path d="m33 30v5l-14-8v-5z" fill="#e6e9ed"/></g><g><path d="m33 45v5l-14-8v-5z" fill="#ff826e"/></g><g><path d="m33 35v5l-14-8v-5z" fill="#ff826e"/></g><g><path d="m33 22v8l-14-8z" fill="#ff826e"/></g></g><g><path d="m48.586 11-4.586 4.586v9.414h-6v-2h2v-6h-4v-2c0-1.103-.897-2-2-2h-1.076c.698-1.203 1.076-2.569 1.076-4 0-4.411-3.589-8-8-8s-8 3.589-8 8c0 1.427.381 2.795 1.079 4h-1.079c-1.103 0-2 .897-2 2v2h-4v6h2v26h-2v6h2.059c.5 4.493 4.317 8 8.941 8h6c4.624 0 8.441-3.507 8.941-8h2.059v-6h-2v-2h6v11.414l4.586 4.586h3.414v-52zm-4.586 16v2h-6v-2zm-6 4h6v10h-6zm-18-22c0-3.309 2.691-6 6-6s6 2.691 6 6c0 1.495-.546 2.898-1.537 4h-8.926c-.99-1.102-1.537-2.51-1.537-4zm-2 6h16v2h-16zm-4 4h24v2h-24zm6 12.42v-2.697l12 6.857v2.697zm12 9.16v2.697l-12-6.857v-2.697zm-12-1.857 12 6.857v2.697l-12-6.857zm12-5.446-12-6.857v-2.697l12 6.857zm-12 10.446 9.235 5.277h-9.235zm12-15.446-9.235-5.277h9.235zm-16-5.277h2v26h-2zm13 38h-6c-3.519 0-6.432-2.613-6.92-6h19.84c-.488 3.387-3.401 6-6.92 6zm9-8h-24v-2h24zm-4-4v-26h2v26zm4-4v-2h6v2zm12 16h-.586l-3.414-3.414v-41.172l3.414-3.414h.586z"/><path d="m26 5v2c1.103 0 2 .897 2 2h2c0-2.206-1.794-4-4-4z"/></g></g></svg>