<svg xmlns="http://www.w3.org/2000/svg" width="32" height="32" viewBox="0 0 32 32"><path fill-rule="evenodd" d="m 14.021484,1.9980469 c 2.94404,-0.077714 5.833744,1.4201375 7.41211,4.15625 2.295812,3.9798001 0.93733,9.0539621 -3.039063,11.3515621 -3.976387,2.2977 -9.0459566,0.938785 -11.3417966,-3.041015 -2.29586,-3.9797 -0.9373475,-9.0539627 3.0390626,-11.3515628 1.242634,-0.7180312 2.591488,-1.07991 3.929687,-1.1152343 z m 0.02539,1.078125 c -1.166116,0.029799 -2.340522,0.3430781 -3.419922,0.9667969 -3.4540799,1.9958 -4.6404443,6.4282652 -2.6464842,9.8847652 1.99397,3.4565 6.4248292,4.646191 9.8789062,2.650391 3.454087,-1.9959 4.640449,-6.430219 2.646484,-9.8867188 -1.37085,-2.3763437 -3.893527,-3.6807923 -6.458984,-3.6152343 z m 1.111331,2.9980469 c 0.10045,0.03 0.223446,0.037988 0.291016,0.1171874 0.10863,0.127 0.203524,0.3603282 0.246093,0.6738282 l 0,1.4765625 -0.002,-0.4042969 0,0.4042969 c -0.04824,-0.013935 -0.09737,-0.032286 -0.144531,-0.041016 -0.35705,-0.066 -0.691387,-0.038391 -0.992187,-0.025391 -0.3008,0.013 -0.563707,0.00998 -0.748047,-0.041016 -0.18435,-0.051 -0.295412,-0.1150312 -0.419922,-0.3320312 -0.0938,-0.1630197 -0.271149,-0.2596158 -0.458984,-0.25 l 0,-0.00195 c -0.216733,0.01141 -0.401362,0.1613219 -0.457032,0.3710938 0.0317,-0.1189 0.005,-0.023219 -0.05664,0.050781 -0.02757,0.032856 -0.07431,0.074653 -0.111328,0.1132813 l 0,-0.8632813 c 0,-0.4223 0.315969,-0.7382812 0.71875,-0.7382812 l 1.232421,0 0.01758,0 c 0.25526,-0.017 0.508841,-0.095013 0.738281,-0.2578125 0.0729,-0.052 0.08319,-0.1776532 0.146484,-0.2519531 z M 13.072266,8.828125 c 0.16469,0.1159 0.29383,0.3185875 0.46875,0.3671875 0.38012,0.1056 0.741673,0.091125 1.058593,0.078125 0.31693,-0.013 0.591785,-0.024234 0.765625,0.00977 0.17383,0.032 0.225295,0.053953 0.302735,0.1894531 0.0084,0.014778 0.0175,0.02912 0.02734,0.042969 l 0,0.4238281 c 0,0.9715003 -0.752332,1.7304693 -1.695312,1.7304693 -0.94296,0 -1.695312,-0.758969 -1.695312,-1.7304693 l 0,-0.4804687 c 0.042,-0.025556 0.08537,-0.049581 0.126953,-0.076172 0.13981,-0.089 0.274353,-0.1976 0.402343,-0.3125 0.0872,-0.078 0.161982,-0.1601875 0.238285,-0.242192 z m 2.037109,3.595703 0,0.509766 c -0.218352,0.406387 -0.38987,0.79509 -0.820313,1.164062 l -0.02539,0.02149 -0.01953,0.02148 -0.234375,0.21875 -0.244141,-0.240234 -0.01367,-0.01172 C 13.407435,13.73883 13.111212,13.335446 12.943359,12.947266 l 0,-0.494141 c 0.324613,0.141012 0.681393,0.21875 1.056641,0.21875 0.396641,0 0.770253,-0.09148 1.109375,-0.248047 z m 0.773437,1.1875 2.00586,1.203125 0.0039,0 c 0.13011,0.07476 0.2354,0.176509 0.328125,0.289063 -0.267384,0.2215 -0.55044,0.429733 -0.861328,0.609375 C 16.45462,16.235689 15.474153,16.502746 14.5,16.542969 l 0,-0.132813 0.0039,0 0,-1.142578 0.457032,-0.427734 0.02734,-0.0293 -0.04883,0.04687 c 0.518311,-0.44433 0.758902,-0.883114 0.943359,-1.246094 z m -3.730468,0.0059 c 0.235744,0.443908 0.552178,0.83731 0.876953,1.183593 l 0.01758,0.01953 0.04297,0.03711 0.410156,0.402344 0,1.238281 c -1.284541,-0.155095 -2.513369,-0.702845 -3.486328,-1.603516 0.04493,-0.03429 0.08505,-0.07298 0.134766,-0.101562 l 0.002,0 z m 8.154297,3.746093 1.226562,2.126953 -3.085937,1.785157 -1.236328,-2.142579 c 0.574462,-0.193878 1.138718,-0.444915 1.683593,-0.759765 0.511732,-0.295686 0.979543,-0.637675 1.41211,-1.009766 z m 1.130859,3.337891 4.417969,7.658203 -0.002,0 c 0.307389,0.5329 0.131829,1.188494 -0.400391,1.496094 -0.532245,0.3075 -1.186767,0.132409 -1.494141,-0.400391 l -1.21875,-2.115234 -2.265625,-3.927735 -0.93164,-1.615234 z" color="#000" font-family="sans-serif" font-weight="400" overflow="visible" white-space="normal" style="line-height:normal;text-indent:0;text-align:start;text-decoration-line:none;text-decoration-style:solid;text-decoration-color:#000;text-transform:none;block-progression:tb;isolation:auto;mix-blend-mode:normal"/></svg>